<?xml version="1.0" standalone="no"?>
<!DOCTYPE svg PUBLIC "-//W3C//DTD SVG 20010904//EN"
 "http://www.w3.org/TR/2001/REC-SVG-20010904/DTD/svg10.dtd">
<svg version="1.0" xmlns="http://www.w3.org/2000/svg"
 width="1280.000000pt" height="867.000000pt" viewBox="0 0 1280.000000 867.000000"
 preserveAspectRatio="xMidYMid meet">
<metadata>
Created by potrace 1.15, written by Peter Selinger 2001-2017
</metadata>
<g transform="translate(0.000000,867.000000) scale(0.100000,-0.100000)"
fill="#000000" stroke="none">
<path d="M7945 8048 c-4 -18 -25 -99 -47 -181 -30 -111 -43 -145 -52 -137 -15
12 -49 -198 -49 -296 1 -85 37 -181 94 -252 97 -121 119 -212 80 -340 l-21
-69 -321 108 c-312 106 -369 121 -369 98 0 -7 -9 -9 -22 -5 -165 45 -813 161
-1093 196 -260 32 -300 39 -185 34 941 -43 1344 -85 1757 -184 154 -37 163
-37 163 -6 0 23 -9 26 -167 65 -605 147 -1340 211 -2078 182 -176 -7 -433 -16
-571 -21 -274 -9 -401 -21 -569 -50 -340 -60 -560 -174 -659 -342 -34 -59 -59
-177 -51 -243 6 -49 4 -53 -43 -115 -198 -261 -358 -373 -573 -400 -46 -5 -87
-14 -91 -18 -5 -5 -2 -28 7 -51 8 -24 15 -46 15 -48 0 -3 -29 -3 -65 -1 -36 1
-65 -1 -65 -5 0 -25 45 -179 71 -245 86 -216 256 -431 464 -587 44 -32 118
-93 165 -135 109 -97 189 -152 304 -206 151 -71 233 -88 426 -89 163 0 166 0
284 37 131 42 135 42 188 28 25 -7 35 -15 32 -25 -3 -7 6 -33 19 -57 14 -24
40 -81 58 -128 28 -74 41 -94 103 -156 117 -116 296 -206 509 -254 82 -19 98
-26 102 -44 25 -110 35 -954 14 -1234 -35 -490 -132 -831 -300 -1055 -219
-291 -634 -350 -1038 -148 -332 167 -516 481 -561 956 -51 542 98 851 444 921
248 51 473 -114 546 -400 30 -118 44 -315 31 -432 -13 -121 -31 -185 -70 -247
l-31 -47 -132 1 c-73 1 -197 4 -276 8 l-143 6 -31 70 c-44 98 -44 175 -1 267
55 118 155 206 260 229 40 9 53 16 51 28 -5 21 -91 18 -159 -4 -155 -52 -228
-169 -216 -349 15 -240 202 -467 386 -469 158 -1 315 168 377 408 24 93 25
347 1 451 -41 180 -119 336 -217 434 -158 158 -361 173 -562 41 -163 -106
-250 -234 -290 -428 -18 -86 -19 -123 -15 -303 10 -366 64 -595 195 -815 62
-105 229 -274 326 -330 300 -173 662 -202 920 -75 220 109 370 357 460 760 49
225 102 664 113 948 3 89 8 162 10 162 2 0 27 -13 56 -29 112 -64 274 -102
506 -120 68 -6 125 -12 127 -14 2 -2 -7 -53 -21 -113 -59 -264 -102 -599 -114
-907 -5 -109 -10 -200 -13 -202 -11 -12 -114 73 -155 128 -187 252 -245 702
-138 1071 8 27 12 52 9 57 -12 19 -33 7 -43 -24 -54 -163 -77 -496 -46 -677
47 -287 174 -502 346 -590 l36 -19 6 -133 c23 -483 167 -853 410 -1056 159
-133 411 -226 642 -238 349 -19 579 169 674 548 43 171 43 426 1 594 -74 293
-302 485 -576 484 -98 -1 -151 -12 -234 -53 -132 -65 -243 -215 -286 -387 -50
-200 40 -406 215 -493 56 -27 76 -32 141 -32 91 0 153 26 217 93 41 42 96 140
109 194 5 23 3 28 -13 28 -13 0 -26 -18 -47 -65 -32 -74 -92 -141 -151 -170
-24 -11 -68 -21 -110 -23 -182 -10 -322 124 -333 318 -15 263 186 512 447 553
210 32 418 -92 524 -313 73 -152 92 -243 91 -445 0 -204 -19 -297 -90 -444
-83 -170 -234 -287 -424 -327 -108 -23 -286 -14 -403 20 -359 106 -565 327
-686 736 -43 144 -90 450 -91 591 0 13 10 15 59 11 128 -9 268 60 406 202 209
215 268 464 161 681 -88 179 -221 248 -347 182 -160 -85 -183 -341 -45 -494
37 -40 48 -47 81 -47 30 0 44 7 71 37 34 37 45 77 22 77 -7 0 -26 -16 -41 -35
-51 -64 -110 -38 -159 70 -17 38 -22 69 -22 130 -1 70 3 87 29 134 96 174 269
139 369 -74 129 -272 -24 -632 -334 -783 -68 -33 -83 -36 -160 -37 l-85 0 1
165 c3 398 95 946 209 1240 91 237 213 410 384 546 l54 43 66 -33 c131 -66
309 -116 482 -136 58 -7 193 -9 344 -6 236 5 249 6 270 26 13 12 68 37 123 55
116 39 196 78 303 146 93 60 127 63 162 17 14 -18 34 -58 45 -88 l20 -55 154
3 c249 4 812 53 832 72 5 5 2 34 -8 70 -9 33 -15 64 -12 69 5 7 -224 697 -259
782 -5 15 -23 10 -135 -36 -333 -138 -682 -223 -1069 -260 -251 -25 -673 -20
-936 10 -397 46 -827 140 -1225 270 -198 65 -412 144 -430 160 -8 8 -33 18
-55 23 -69 16 -362 145 -595 262 -116 58 -160 87 -82 54 154 -65 452 -165 950
-319 778 -239 1164 -331 1647 -392 178 -23 780 -26 945 -5 591 74 929 263 991
554 54 250 -143 615 -474 880 -243 194 -548 365 -921 517 -82 34 -151 63 -153
65 -2 1 6 38 17 81 11 43 20 109 20 147 l0 69 30 -16 c16 -8 36 -15 45 -15 8
0 15 -4 15 -10 0 -5 15 -12 34 -15 43 -9 97 16 129 58 54 72 70 113 182 479
19 64 40 120 45 123 17 11 11 35 -9 35 -24 0 -46 -53 -107 -255 -26 -88 -62
-196 -81 -241 -33 -79 -88 -154 -113 -154 -7 0 -1 9 14 21 34 26 96 157 133
279 l29 95 -70 0 c-56 0 -83 6 -130 28 -71 33 -162 97 -238 168 l-58 54 28
100 c33 118 56 167 76 159 8 -3 42 -48 76 -100 67 -103 112 -143 192 -170 81
-27 167 -5 247 61 47 40 42 56 -16 47 -77 -11 -224 -8 -276 7 -100 29 -179
108 -219 221 -26 73 -43 85 -53 38z m505 -1558 c281 -141 518 -294 650 -419
l65 -62 -60 41 c-233 163 -513 340 -775 488 -97 56 -44 34 120 -48z m-4642
-97 c11 -16 39 -66 62 -113 l42 -85 -32 30 c-17 17 -44 50 -60 74 -25 37 -31
41 -36 25 -50 -159 -177 -264 -379 -314 -73 -18 -235 -41 -243 -35 -2 2 4 17
13 34 13 26 21 31 51 31 55 0 97 27 324 210 117 93 219 170 226 170 7 0 21
-12 32 -27z m183 -263 l23 -35 -23 20 c-13 11 -38 52 -56 90 -48 104 -52 132
-6 40 22 -44 50 -96 62 -115z m363 -216 c712 -449 2148 -876 3396 -1010 199
-21 714 -30 877 -15 263 25 480 80 633 161 70 37 73 37 40 10 -71 -62 -294
-153 -500 -205 -408 -103 -934 -112 -1503 -25 -597 92 -1309 305 -2086 625
-429 177 -657 291 -832 418 -87 62 -185 143 -139 113 14 -9 65 -41 114 -72z
m-231 -1104 c38 -12 66 -24 64 -27 -13 -12 -327 113 -327 131 0 2 44 -15 98
-39 53 -23 128 -52 165 -65z m958 -132 c81 -125 209 -260 319 -337 72 -51 223
-132 269 -144 13 -3 21 -13 21 -26 0 -12 -2 -21 -4 -21 -2 0 -46 14 -96 30
-361 118 -604 339 -636 578 -5 44 -4 51 12 55 22 5 24 3 115 -135z m3865 -356
c114 -176 122 -187 150 -185 16 1 163 12 327 24 164 12 300 19 303 16 14 -13
-33 -82 -66 -98 -44 -22 -396 -63 -535 -62 -167 0 -259 52 -325 183 -17 33
-33 60 -36 60 -3 0 -45 -29 -92 -65 -86 -65 -299 -178 -357 -190 -24 -5 21 44
234 254 146 143 267 258 270 255 3 -3 60 -90 127 -192z m-2083 -21 c165 -151
194 -181 181 -192 -12 -10 -28 -3 -87 37 -85 58 -213 178 -263 246 -20 26 -42
48 -49 48 -8 0 -28 -27 -46 -61 -35 -66 -111 -140 -180 -178 l-44 -24 26 29
c80 91 253 274 258 274 4 0 96 -81 204 -179z m-56 -70 c76 -76 147 -143 158
-149 20 -11 19 -11 -5 -28 -60 -41 -221 -215 -276 -299 -60 -92 -138 -257
-169 -356 l-18 -56 -66 4 c-298 18 -499 65 -604 141 l-39 28 -5 169 c-2 94 -8
205 -12 248 -4 42 -6 77 -4 77 2 0 24 -15 50 -34 114 -81 254 -132 453 -165
127 -21 397 -44 412 -35 16 10 7 34 -14 38 -13 3 -72 7 -131 10 -339 18 -608
98 -733 220 -67 65 -69 79 -11 69 23 -5 125 -8 227 -7 157 1 197 4 265 22 142
39 212 79 289 165 38 43 75 77 82 77 8 0 76 -62 151 -139z m-974 -76 c125 -24
378 -18 492 11 15 4 17 3 5 -4 -8 -5 -49 -17 -90 -27 -159 -36 -480 -24 -488
18 -2 9 -2 17 0 17 2 0 38 -7 81 -15z m1288 -91 l24 -27 -33 17 c-18 9 -30 21
-27 26 8 13 8 13 36 -16z"/>
<path d="M8030 8040 c0 -15 30 -27 138 -55 145 -36 203 -60 271 -110 67 -50
93 -43 41 10 -48 49 -139 91 -288 130 -143 37 -162 40 -162 25z"/>
</g>
</svg>
