<?xml version="1.0" encoding="UTF-8"?>
<svg width="512" height="512" version="1.1" viewBox="0 0 512 512" xmlns="http://www.w3.org/2000/svg">
 <g>
  <path d="m256 50c-22.055 0-40 17.945-40 40v10h80v-10c0-22.055-17.945-40-40-40z" fill="#e6e6e6"/>
  <rect x="236" y="100" width="40" height="30" fill="#ccc"/>
  <path d="m256 140c-66.168 0-120 53.832-120 120v170h240v-170c0-66.168-53.832-120-120-120z" fill="#8f8f8f"/>
  <rect x="141" y="410" width="230" height="20" rx="10" ry="10" fill="#4d4d4d"/>
  <rect x="176" y="430" width="40" height="30" fill="#333"/>
  <rect x="296" y="430" width="40" height="30" fill="#333"/>
  <rect x="166" y="180" width="180" height="140" rx="20" ry="20" fill="#e6e6e6"/>
  <g fill="#4d4d4d">
   <circle cx="206" cy="220" r="15"/>
   <circle cx="306" cy="220" r="15"/>
  </g>
  <rect x="196" y="270" width="120" height="10" fill="#333"/>
  <rect x="196" y="290" width="120" height="10" fill="#333"/>
  <circle cx="256" cy="80" r="10" fill="#ffcc00"/>
  <rect x="166" y="150" width="20" height="50" fill="#e6e6e6"/>
  <rect x="326" y="150" width="20" height="50" fill="#e6e6e6"/>
  <path d="m151 260h-30c-5.523 0-10 4.477-10 10v40c0 5.523 4.477 10 10 10h30z" fill="#e6e6e6"/>
  <path d="m361 260h30c5.523 0 10 4.477 10 10v40c0 5.523-4.477 10-10 10h-30z" fill="#e6e6e6"/>
  <path d="m161 220c-5.523 0-10 4.477-10 10v60h20v-60c0-5.523-4.477-10-10-10z" fill="#ffcc00"/>
  <path d="m351 220c-5.523 0-10 4.477-10 10v60h20v-60c0-5.523-4.477-10-10-10z" fill="#ffcc00"/>
  <path d="m226 340h60v20h-60z" fill="#ffcc00"/>
 </g>
</svg>
